<svg xmlns="http://www.w3.org/2000/svg" viewBox="0 0 14 14" width="14" height="14">
	<defs>
		<clipPath clipPathUnits="userSpaceOnUse" id="cp1">
			<path d="M-46 -93L594 -93L594 635L-46 635Z" />
		</clipPath>
	</defs>
	<style>
		tspan { white-space:pre }
		.shp0 { fill: none;stroke: #707070;stroke-width: 1.7 } 
	</style>
	<g id="Product detail" clip-path="url(#cp1)">
		<g id="Group 404">
			<g id="Group 403">
				<g id="Group 401">
					<g id="phone">
						<g id="Group 399">
							<path id="Path 152" class="shp0" d="M12.7 9.46L11.09 7.85C10.52 7.27 9.54 7.5 9.31 8.25C9.14 8.77 8.56 9.06 8.05 8.94C6.9 8.65 5.35 7.16 5.06 5.95C4.89 5.44 5.23 4.86 5.75 4.69C6.5 4.46 6.72 3.48 6.15 2.91L4.54 1.3C4.08 0.9 3.39 0.9 2.99 1.3L1.9 2.39C0.81 3.54 2.02 6.59 4.71 9.29C7.41 11.98 10.46 13.25 11.61 12.1L12.7 11.01C13.1 10.55 13.1 9.86 12.7 9.46Z" />
						</g>
					</g>
				</g>
			</g>
		</g>
	</g>
</svg>