<svg xmlns="http://www.w3.org/2000/svg" viewBox="0 0 13 12" width="13" height="12">
	<defs>
		<clipPath clipPathUnits="userSpaceOnUse" id="cp1">
			<path d="M-47 -73L593 -73L593 655L-47 655Z" />
		</clipPath>
	</defs>
	<style>
		tspan { white-space:pre }
		.shp0 { fill: #707070 } 
	</style>
	<g id="Product detail" clip-path="url(#cp1)">
		<g id="Group 404">
			<g id="Group 403">
				<g id="Group 402">
					<g id="shop-1">
						<g id="Group 358">
							<path id="Path 147" fill-rule="evenodd" class="shp0" d="M0.52 2.75L1.34 0.28C1.4 0.11 1.56 0 1.73 0L10.77 0C10.94 0 11.1 0.11 11.16 0.28L11.98 2.75C11.99 2.78 12 2.82 12 2.86C12 2.87 12 2.87 12 2.87L12 3.29C12 3.93 11.69 4.53 11.18 4.92C11.18 4.92 11.18 4.93 11.18 4.93L11.18 10.27C11.18 10.95 10.63 11.5 9.95 11.5L2.55 11.5C1.87 11.5 1.32 10.95 1.32 10.27C1.32 10.26 1.32 4.92 1.32 4.92C0.81 4.53 0.5 3.93 0.5 3.29C0.5 3.28 0.5 2.87 0.5 2.86C0.5 2.82 0.51 2.78 0.52 2.75ZM3.37 0.82L2.03 0.82L1.48 2.46L3.37 2.46L3.37 0.82ZM5.84 0.82L4.2 0.82L4.2 2.46L5.84 2.46L5.84 0.82ZM8.3 0.82L6.66 0.82L6.66 2.46L8.3 2.46L8.3 0.82ZM10.47 0.82L9.12 0.82L9.12 2.46L11.02 2.46L10.47 0.82ZM2.55 10.68L4.61 10.68L4.61 6.98C4.61 6.76 4.79 6.57 5.02 6.57L7.48 6.57C7.71 6.57 7.89 6.76 7.89 6.98L7.89 10.68L9.95 10.68C10.17 10.68 10.36 10.49 10.36 10.27L10.36 5.3C9.78 5.42 9.18 5.28 8.71 4.92C7.98 5.46 6.98 5.46 6.25 4.92C5.52 5.46 4.52 5.46 3.79 4.92C3.32 5.28 2.72 5.42 2.14 5.3L2.14 10.27C2.14 10.49 2.33 10.68 2.55 10.68ZM7.07 10.68L7.07 7.39L5.43 7.39L5.43 10.68L7.07 10.68ZM2.55 4.52C2.91 4.52 3.25 4.36 3.48 4.09C3.63 3.92 3.89 3.9 4.06 4.05C4.07 4.06 4.08 4.08 4.09 4.09C4.55 4.6 5.33 4.64 5.84 4.19C5.88 4.16 5.91 4.12 5.94 4.09C6.1 3.92 6.37 3.91 6.54 4.07C6.55 4.08 6.55 4.09 6.56 4.09C7.02 4.6 7.8 4.64 8.31 4.19C8.34 4.16 8.37 4.12 8.4 4.09C8.57 3.92 8.83 3.91 9.01 4.07C9.01 4.08 9.02 4.09 9.02 4.09C9.25 4.36 9.59 4.52 9.95 4.52C10.63 4.52 11.18 3.97 11.18 3.29L1.32 3.29C1.32 3.97 1.87 4.52 2.55 4.52Z" />
						</g>
					</g>
				</g>
			</g>
		</g>
	</g>
</svg>