<svg xmlns="http://www.w3.org/2000/svg" width="20.313" height="25" viewBox="0 0 20.313 25"><g transform="translate(-48)"><path d="M66.359,3.125h-4.3V2.344A2.346,2.346,0,0,0,59.719,0H56.594A2.346,2.346,0,0,0,54.25,2.344v.781h-4.3A1.955,1.955,0,0,0,48,5.078V7.813a.781.781,0,0,0,.781.781h.427l.675,14.174A2.341,2.341,0,0,0,52.224,25H64.088a2.341,2.341,0,0,0,2.341-2.232L67.1,8.594h.427a.781.781,0,0,0,.781-.781V5.078A1.955,1.955,0,0,0,66.359,3.125ZM55.812,2.344a.782.782,0,0,1,.781-.781h3.125a.782.782,0,0,1,.781.781v.781H55.812Zm-6.25,2.734a.391.391,0,0,1,.391-.391H66.359a.391.391,0,0,1,.391.391V7.031H49.562ZM64.869,22.693a.78.78,0,0,1-.78.744H52.224a.78.78,0,0,1-.78-.744l-.671-14.1H65.54Z" transform="translate(0)" fill="#d7161b"/><path d="M240.862,220.923a.862.862,0,0,0,.862-.862v-11.2a.862.862,0,0,0-1.723,0v11.2A.862.862,0,0,0,240.862,220.923Z" transform="translate(-182.705 -199.369)" fill="#d7161b"/><path d="M320.861,220.923a.862.862,0,0,0,.862-.862v-11.2a.862.862,0,0,0-1.723,0v11.2A.862.862,0,0,0,320.861,220.923Z" transform="translate(-258.832 -199.369)" fill="#d7161b"/><path d="M160.862,220.923a.862.862,0,0,0,.862-.862v-11.2a.862.862,0,0,0-1.723,0v11.2A.862.862,0,0,0,160.862,220.923Z" transform="translate(-106.578 -199.369)" fill="#d7161b"/></g></svg>