<svg xmlns="http://www.w3.org/2000/svg" width="18.676" height="18.159" viewBox="0 0 18.676 18.159"><path d="M12.951,13.52V14.9a2.762,2.762,0,0,1-2.759,2.759H3.259A2.762,2.762,0,0,1,.5,14.9V2.759A2.762,2.762,0,0,1,3.259,0h6.933a2.762,2.762,0,0,1,2.759,2.759v1.38a.69.69,0,1,1-1.38,0V2.759a1.381,1.381,0,0,0-1.38-1.38H3.259a1.381,1.381,0,0,0-1.38,1.38V14.9a1.381,1.381,0,0,0,1.38,1.38h6.933a1.381,1.381,0,0,0,1.38-1.38V13.52a.69.69,0,0,1,1.38,0Zm4.7-5.876L16.109,6.1a.69.69,0,0,0-.976.975l1.1,1.1H7.95a.69.69,0,0,0,0,1.38h8.283l-1.1,1.1a.69.69,0,1,0,.976.975l1.545-1.545C19.573,8.826,18.327,8.317,17.654,7.645Zm0,0" transform="translate(-0.25 0.25)" fill="#25aae1" stroke="#25aae1" stroke-width="0.5"/></svg>