<svg xmlns="http://www.w3.org/2000/svg" width="19.677" height="16.214" viewBox="0 0 19.677 16.214"><g transform="translate(0.25 0.25)"><g transform="translate(0 0)"><g transform="translate(0 0)"><path d="M17.339,39H3.92a1.841,1.841,0,0,0-1.833,1.842v.022H1.838A1.837,1.837,0,0,0,0,42.693V52.872a1.848,1.848,0,0,0,1.838,1.842H15.257a1.841,1.841,0,0,0,1.833-1.842V52.85h.249a1.837,1.837,0,0,0,1.838-1.829V40.842A1.845,1.845,0,0,0,17.339,39ZM15.257,53.827H1.838a.961.961,0,0,1-.95-.954V42.693a.949.949,0,0,1,.95-.941H15.257a.943.943,0,0,1,.946.941v2.539a1.093,1.093,0,0,1-.235.027H13.406a2.528,2.528,0,0,0,0,5.056h2.557c.08,0,.16-.013.235-.022l0,2.579A.954.954,0,0,1,15.257,53.827Zm3.032-2.805a.949.949,0,0,1-.95.941H17.09V49.973a2.426,2.426,0,0,0,.51-.466l.688-.888ZM16.9,48.97a1.2,1.2,0,0,1-.932.462H13.406a1.642,1.642,0,0,1,0-3.285h2.557a2.025,2.025,0,0,0,.883-.2,2.064,2.064,0,0,0,.75-.6l.688-.888,0,2.712ZM18.289,43l-1.2,1.545V42.693a1.83,1.83,0,0,0-1.833-1.829H2.974v-.022a.954.954,0,0,1,.946-.954H17.339a.961.961,0,0,1,.95.954Z" transform="translate(0 -39)" fill="#25aae1" stroke="#25aae1" stroke-width="0.5"/></g></g><g transform="translate(12.599 8.246)"><g transform="translate(0 0)"><path d="M292.211,227h-1.278a.533.533,0,0,0,0,1.065h1.278a.533.533,0,0,0,0-1.065Z" transform="translate(-290.4 -227)" fill="#25aae1" stroke="#25aae1" stroke-width="0.5"/></g></g></g></svg>