<svg xmlns="http://www.w3.org/2000/svg" width="38" height="38" viewBox="0 0 38 38"><g transform="translate(-1071 -22)"><circle cx="19" cy="19" r="19" transform="translate(1071 22)" fill="#25aae1" opacity="0.1"/><path d="M72.033,19.1A3.729,3.729,0,0,1,70.9,17.556,17.854,17.854,0,0,1,69.718,10.5c0-.009,0-.018,0-.027A6.81,6.81,0,0,0,65.709,4.3V2.674A2.674,2.674,0,0,0,63.04,0h-.221A2.674,2.674,0,0,0,60.15,2.674V4.3a6.81,6.81,0,0,0-4.009,6.2,17.855,17.855,0,0,1-1.181,7.055A3.729,3.729,0,0,1,53.826,19.1a.684.684,0,0,0-.375.777.715.715,0,0,0,.705.55H59.31a3.62,3.62,0,0,0,7.24,0H71.7a.715.715,0,0,0,.705-.55A.684.684,0,0,0,72.033,19.1ZM61.556,2.674a1.265,1.265,0,0,1,1.263-1.265h.221A1.265,1.265,0,0,1,64.3,2.674V3.842a6.81,6.81,0,0,0-2.747,0V2.674Zm1.373,19.918a2.219,2.219,0,0,1-2.214-2.165h4.427A2.219,2.219,0,0,1,62.929,22.591Zm2.831-3.574h-10a7.371,7.371,0,0,0,.368-.647,17.8,17.8,0,0,0,1.42-7.87,5.382,5.382,0,1,1,10.764,0c0,.009,0,.017,0,.026a17.766,17.766,0,0,0,1.42,7.842,7.374,7.374,0,0,0,.368.647Z" transform="translate(1041.997 -1.49) rotate(30)"/></g></svg>