<svg xmlns="http://www.w3.org/2000/svg" width="25" height="25" viewBox="0 0 25 25"><g transform="translate(1 1)"><path d="M8.274,0H1.565A1.567,1.567,0,0,0,0,1.565V5.59A1.567,1.567,0,0,0,1.565,7.156H8.274A1.567,1.567,0,0,0,9.839,5.59V1.565A1.567,1.567,0,0,0,8.274,0Zm0,0" fill="none" stroke="#fff" stroke-width="2"/><path d="M8.274,213.332H1.565A1.567,1.567,0,0,0,0,214.9v9.392a1.567,1.567,0,0,0,1.565,1.565H8.274a1.567,1.567,0,0,0,1.565-1.565V214.9A1.567,1.567,0,0,0,8.274,213.332Zm0,0" transform="translate(0 -202.854)" fill="none" stroke="#fff" stroke-width="2"/><path d="M285.606,341.332H278.9a1.567,1.567,0,0,0-1.565,1.565v4.025a1.567,1.567,0,0,0,1.565,1.565h6.708a1.567,1.567,0,0,0,1.565-1.565V342.9A1.567,1.567,0,0,0,285.606,341.332Zm0,0" transform="translate(-264.171 -325.488)" fill="none" stroke="#fff" stroke-width="2"/><path d="M285.606,0H278.9a1.567,1.567,0,0,0-1.565,1.565v9.392a1.567,1.567,0,0,0,1.565,1.565h6.708a1.567,1.567,0,0,0,1.565-1.565V1.565A1.567,1.567,0,0,0,285.606,0Zm0,0" transform="translate(-264.171)" fill="none" stroke="#fff" stroke-width="2"/></g></svg>