<svg xmlns="http://www.w3.org/2000/svg" width="18" height="20" viewBox="0 0 23.674 23"><path d="M16.717,17.609v1.8A3.6,3.6,0,0,1,13.123,23H4.094A3.6,3.6,0,0,1,.5,19.406V3.594A3.6,3.6,0,0,1,4.094,0h9.029a3.6,3.6,0,0,1,3.594,3.594v1.8a.9.9,0,1,1-1.8,0v-1.8a1.8,1.8,0,0,0-1.8-1.8H4.094a1.8,1.8,0,0,0-1.8,1.8V19.406a1.8,1.8,0,0,0,1.8,1.8h9.029a1.8,1.8,0,0,0,1.8-1.8v-1.8a.9.9,0,1,1,1.8,0Zm6.125-7.653L20.83,7.945a.9.9,0,1,0-1.271,1.27l1.431,1.431H10.2a.9.9,0,1,0,0,1.8H20.991L19.56,13.875a.9.9,0,1,0,1.271,1.27l2.012-2.012C25.341,11.5,23.718,10.832,22.842,9.957Zm0,0" transform="translate(-0.5)" fill="#fff"/></svg>