<svg xmlns="http://www.w3.org/2000/svg" width="23.5" height="23.5" viewBox="0 0 23.5 23.5"><g transform="translate(0.25 0.25)"><path d="M12.222,23H10.778a2.12,2.12,0,0,1-2.117-2.117v-.488a9.285,9.285,0,0,1-1.442-.6l-.346.346a2.117,2.117,0,0,1-2.995,0l-1.02-1.02a2.117,2.117,0,0,1,0-2.995l.346-.346a9.286,9.286,0,0,1-.6-1.442H2.117A2.12,2.12,0,0,1,0,12.222V10.778A2.12,2.12,0,0,1,2.117,8.661h.488a9.288,9.288,0,0,1,.6-1.442l-.346-.346a2.117,2.117,0,0,1,0-2.995l1.02-1.02a2.117,2.117,0,0,1,2.995,0l.346.346a9.294,9.294,0,0,1,1.442-.6V2.117A2.12,2.12,0,0,1,10.778,0h1.443a2.12,2.12,0,0,1,2.117,2.117v.488a9.285,9.285,0,0,1,1.442.6l.346-.346a2.117,2.117,0,0,1,2.995,0l1.02,1.02a2.117,2.117,0,0,1,0,2.995l-.346.346a9.286,9.286,0,0,1,.6,1.442h.488A2.12,2.12,0,0,1,23,10.778v1.444a2.12,2.12,0,0,1-2.117,2.117h-.488a9.288,9.288,0,0,1-.6,1.442l.346.346a2.117,2.117,0,0,1,0,2.995l-1.02,1.02a2.117,2.117,0,0,1-2.995,0l-.346-.346a9.294,9.294,0,0,1-1.442.6v.488A2.12,2.12,0,0,1,12.222,23ZM7.444,18.381a7.943,7.943,0,0,0,2.059.855.674.674,0,0,1,.505.652v.995a.771.771,0,0,0,.77.77h1.443a.771.771,0,0,0,.77-.77v-.995a.674.674,0,0,1,.505-.652,7.943,7.943,0,0,0,2.059-.855.674.674,0,0,1,.82.1l.7.7a.769.769,0,0,0,1.088,0l1.021-1.021a.77.77,0,0,0,0-1.088l-.705-.705a.674.674,0,0,1-.1-.819,7.941,7.941,0,0,0,.855-2.059.674.674,0,0,1,.652-.505h.995a.771.771,0,0,0,.77-.77V10.778a.771.771,0,0,0-.77-.77h-.995a.674.674,0,0,1-.652-.505,7.943,7.943,0,0,0-.855-2.059.674.674,0,0,1,.1-.819l.7-.7a.769.769,0,0,0,0-1.088L18.169,3.811a.769.769,0,0,0-1.088,0l-.705.705a.674.674,0,0,1-.82.1A7.943,7.943,0,0,0,13.5,3.765a.674.674,0,0,1-.505-.652v-1a.771.771,0,0,0-.77-.77H10.778a.771.771,0,0,0-.77.77v.995a.674.674,0,0,1-.505.652,7.943,7.943,0,0,0-2.059.855.674.674,0,0,1-.82-.1l-.7-.7a.769.769,0,0,0-1.088,0L3.811,4.832a.77.77,0,0,0,0,1.088l.705.705a.674.674,0,0,1,.1.819A7.941,7.941,0,0,0,3.765,9.5a.674.674,0,0,1-.652.505H2.117a.771.771,0,0,0-.77.77v1.444a.771.771,0,0,0,.77.77h.995a.674.674,0,0,1,.652.505,7.943,7.943,0,0,0,.855,2.059.674.674,0,0,1-.1.819l-.7.7a.769.769,0,0,0,0,1.088l1.021,1.021a.769.769,0,0,0,1.088,0l.705-.705A.677.677,0,0,1,7.444,18.381Z" transform="translate(0 0)" fill="#fff" stroke="#fff" stroke-width="0.5"/><path d="M149.6,154.609a5,5,0,1,1,5-5A5.01,5.01,0,0,1,149.6,154.609Zm0-8.661a3.657,3.657,0,1,0,3.657,3.657A3.661,3.661,0,0,0,149.6,145.948Z" transform="translate(-138.104 -138.104)" fill="#fff" stroke="#fff" stroke-width="0.5"/></g></svg>