<svg xmlns="http://www.w3.org/2000/svg" width="18" height="20" viewBox="0 0 23 23">
<path d="M22.958,5.49,21.315.562A.821.821,0,0,0,20.536,0H2.464a.821.821,0,0,0-.78.562L.042,5.49A.837.837,0,0,0,0,5.728v.844A4.09,4.09,0,0,0,1.643,9.839v10.7A2.464,2.464,0,0,0,4.107,23H18.893a2.464,
2.464,0,0,0,2.464-2.464V9.839A4.09,4.09,0,0,0,23,6.571V5.728A.835.835,0,0,0,22.958,5.49ZM17.25,1.643h2.693l1.1,3.286H17.25Zm-4.929,0h3.286V4.929H12.321Zm-4.929,0h3.286V4.929H7.393Zm-4.336,0H5.75V4.929H1.961ZM13.143,21.357H9.857V14.786h3.286v6.571Zm6.571-.821a.821.821,0,0,1-.821.821H14.786V13.964a.821.821,0,0,0-.821-.821H9.036a.821.821,0,0,0-.821.821v7.393H4.107a.821.821,0,0,1-.821-.821V10.6a4.06,4.06,0,0,0,3.286-.754,4.163,4.163,0,0,0,4.929,0,4.163,4.163,0,0,0,4.929,0,4.06,4.06,0,0,0,3.286.754v9.939Zm-.821-11.5a2.427,2.427,0,0,1-1.846-.853.821.821,0,0,0-1.237,0,2.478,2.478,0,0,1-3.692,0,.849.849,0,0,0-1.2-.036l-.036.036a2.478,2.478,0,0,1-3.692,0,.849.849,0,0,0-1.2-.036l-.036.036a2.427,2.427,0,0,1-1.846.853A2.464,2.464,0,0,1,1.643,6.571H21.357A2.464,2.464,0,0,1,18.893,9.036Z" transform="translate(0 0)" fill="#fff"/></svg>